{"glyphs":{"0":{"ha":692,"x_min":1,"x_max":621,"o":"m 319 971 q 440 934 385 971 q 535 833 494 897 q 598 681 575 769 q 621 492 621 593 q 598 294 621 385 q 535 139 575 204 q 440 37 494 74 q 319 0 385 0 q 199 36 254 0 q 101 135 143 72 q 33 282 60 197 q 1 463 7 367 l 129 463 q 152 329 135 390 q 194 223 169 268 q 251 153 219 178 q 319 128 283 128 q 380 153 349 128 q 436 226 411 179 q 477 341 461 274 q 493 492 493 408 q 477 635 493 571 q 436 746 461 700 q 380 817 411 792 q 319 842 349 842 q 249 817 283 842 q 188 746 215 792 q 145 635 161 700 q 129 492 129 571 l 129 463 l 11 581 q 43 742 17 669 q 111 865 69 814 q 206 943 153 915 q 319 971 260 971 z "},"1":{"ha":351,"x_min":-1,"x_max":282,"o":"m 154 822 l -1 822 l 154 963 l 282 821 l 282 1 l 154 128 l 154 822 z "},"2":{"ha":672,"x_min":0,"x_max":601,"o":"m 301 318 q 229 270 265 294 q 163 221 193 246 q 112 172 133 196 q 85 124 90 147 l 601 126 l 493 0 l 190 0 l 0 222 q 101 331 36 282 q 238 428 165 379 q 328 487 285 457 q 403 548 371 517 q 456 613 436 579 q 475 682 475 646 q 420 797 475 753 q 269 840 365 840 l 142 951 q 293 967 213 972 q 442 930 374 963 q 556 835 511 897 q 601 682 601 774 q 574 570 601 621 q 505 475 547 519 q 409 392 463 431 q 301 318 356 353 z "},"3":{"ha":688,"x_min":0,"x_max":618,"o":"m 571 475 q 604 407 590 449 q 618 317 618 365 q 592 198 618 256 q 523 97 567 140 q 422 26 479 53 q 301 0 365 0 q 185 23 239 0 q 90 87 131 46 q 26 183 50 128 q 0 301 3 238 l 126 301 q 174 176 126 226 q 301 126 221 126 q 374 140 339 126 q 435 180 408 154 q 476 240 461 206 q 492 317 492 275 q 475 392 492 360 q 430 447 458 425 q 364 479 401 468 q 285 492 326 490 l 160 601 q 315 615 265 601 q 381 649 364 629 q 418 724 415 688 q 403 788 421 760 q 355 831 386 815 q 291 844 324 846 q 230 818 258 842 q 189 744 201 794 l 88 835 q 174 930 115 893 q 301 967 232 967 q 436 928 381 967 q 517 830 492 889 q 533 701 542 771 q 475 571 524 632 q 522 528 499 546 q 571 475 546 510 z "},"4":{"ha":731,"x_min":0,"x_max":661,"o":"m 0 463 l 313 906 l 407 826 l 83 365 l 0 463 m 535 365 l 661 365 l 661 238 l 535 238 l 533 -126 l 406 1 l 407 238 l 201 238 l 83 365 l 407 365 l 407 826 l 407 826 l 407 969 l 407 969 l 535 860 l 535 365 z "},"5":{"ha":757,"x_min":1,"x_max":686,"o":"m 350 639 q 484 616 422 639 q 590 551 546 593 q 660 449 635 508 q 686 319 686 390 q 660 196 686 254 q 590 94 635 138 q 484 26 546 51 q 350 1 422 1 q 192 31 256 1 q 88 101 128 60 q 27 190 47 143 q 1 271 7 236 l 129 271 q 148 228 135 253 q 186 182 161 204 q 251 144 211 160 q 350 129 292 129 q 438 144 399 129 q 503 183 476 158 q 545 243 531 208 q 560 319 560 278 q 503 471 560 415 q 350 526 447 526 q 319 524 339 526 q 288 510 299 522 l 97 732 l 129 972 l 510 972 l 639 861 l 240 861 l 208 601 q 273 626 232 614 q 350 639 314 639 z "},"6":{"ha":754,"x_min":1,"x_max":683,"o":"m 635 493 q 671 412 658 457 q 683 319 683 367 q 658 195 683 253 q 590 94 633 138 q 489 26 547 51 q 365 1 431 1 q 94 127 186 1 q 1 493 1 253 q 22 676 1 594 q 81 819 42 758 q 176 918 119 881 q 303 968 232 956 l 444 826 q 411 840 433 838 q 365 842 389 842 q 257 810 300 842 q 187 733 214 779 q 147 634 160 686 q 128 540 133 582 q 365 635 222 635 q 518 594 449 635 q 635 493 588 553 m 365 128 q 442 142 407 128 q 503 181 478 156 q 542 242 528 207 q 557 319 557 278 q 542 388 557 354 q 503 449 528 422 q 442 492 478 475 q 365 508 407 508 q 283 490 318 508 q 224 461 247 472 l 128 540 l 128 525 l 128 476 q 131 405 128 447 q 145 319 135 363 q 174 238 156 276 q 224 175 193 199 q 365 128 271 128 z "},"7":{"ha":692,"x_min":1,"x_max":622,"o":"m 144 0 l 1 0 l 415 843 l 81 843 l 192 971 l 622 971 l 144 0 l 144 0 z "},"8":{"ha":707,"x_min":-3,"x_max":636,"o":"m 543 443 q 610 360 583 406 q 636 254 636 314 q 608 144 636 192 q 536 64 581 96 q 434 16 492 32 q 317 0 376 0 l 301 0 q 174 26 232 0 q 76 94 117 51 q 17 189 36 136 q 3 297 -3 242 q 42 402 8 351 q 142 490 75 453 q 49 575 83 517 q 15 713 15 633 q 38 819 15 772 q 100 899 61 867 q 191 948 139 931 q 301 967 243 965 l 317 967 q 425 950 371 967 q 522 901 479 933 q 592 822 565 869 q 619 713 619 775 q 578 584 619 644 q 476 490 536 524 q 515 467 500 479 q 543 443 531 456 m 317 856 q 222 836 260 856 q 164 785 183 817 q 144 718 144 754 q 163 648 143 682 q 220 589 182 614 q 317 556 258 564 q 413 590 375 565 q 467 649 450 615 q 481 718 483 682 q 460 785 479 754 q 404 835 440 815 q 317 856 368 856 m 158 333 q 122 247 119 285 q 153 183 125 210 q 226 142 181 157 q 317 126 271 128 q 395 138 350 124 q 473 181 440 153 q 513 247 506 208 q 476 333 519 286 q 409 378 453 356 q 317 411 365 400 q 219 378 257 400 q 158 333 182 356 z "},"9":{"ha":676,"x_min":-3,"x_max":608,"o":"m 606 588 q 581 410 603 506 q 513 228 558 314 q 400 80 468 143 q 236 0 332 17 l 85 139 q 225 142 164 126 q 332 194 286 157 q 409 288 378 232 q 458 413 440 344 q 379 377 422 389 q 300 365 336 365 q 178 390 233 365 q 82 457 122 415 q 19 553 42 499 q -3 668 -3 608 q 19 789 -3 733 q 82 885 42 844 q 178 948 122 925 q 300 971 233 971 q 435 943 376 971 q 533 865 494 915 q 590 743 571 814 q 606 588 608 672 m 458 413 q 463 426 456 399 q 476 501 469 453 q 484 608 483 549 q 468 720 485 668 q 412 808 451 772 q 300 843 372 843 q 232 829 264 843 q 176 792 200 815 q 138 736 151 768 q 124 668 124 704 q 145 586 124 624 q 201 525 167 549 q 278 495 235 501 q 363 508 321 489 l 458 413 z "},"B":{"ha":699,"x_min":0,"x_max":629,"o":"m 408 550 q 572 447 515 514 q 629 299 629 381 q 601 187 629 239 q 521 95 572 135 q 397 31 469 56 q 236 0 324 6 l 0 265 l 0 449 l 128 597 l 0 597 l 0 972 l 126 972 q 278 953 208 972 q 397 900 347 933 q 476 821 447 867 q 504 721 504 775 q 480 629 504 674 q 408 550 456 585 m 128 597 q 231 608 186 597 q 306 636 276 618 q 351 676 336 654 q 367 722 367 699 q 351 761 367 740 q 306 801 336 782 q 231 832 276 819 q 128 844 186 844 l 128 597 m 190 125 q 315 140 261 125 q 406 180 369 156 q 462 235 443 204 q 481 294 481 265 q 462 355 481 324 q 406 411 443 386 q 315 453 369 436 q 190 469 261 469 l 126 469 l 126 125 l 190 125 z "},"C":{"ha":967,"x_min":0,"x_max":892,"o":"m 465 128 q 634 183 561 128 q 743 335 707 239 l 892 335 q 826 201 868 263 q 730 95 785 140 q 607 25 675 50 q 461 0 539 0 q 291 36 372 0 q 147 135 210 72 q 45 281 85 197 q 0 461 6 365 l 129 460 l 15 574 q 67 730 28 657 q 167 857 107 803 q 302 942 226 911 q 461 972 378 972 q 697 907 593 972 q 860 733 800 842 l 763 635 q 713 721 744 682 q 642 787 682 760 q 555 828 601 814 q 461 843 508 843 q 316 814 378 843 q 212 736 254 785 q 149 625 169 688 q 128 497 128 563 q 149 367 128 431 q 212 253 169 304 q 317 167 254 201 q 465 128 381 133 z "},"D":{"ha":735,"x_min":0,"x_max":665,"o":"m 128 972 q 342 926 244 967 q 513 821 440 886 q 625 669 585 756 q 665 486 665 583 q 633 314 665 394 q 545 170 601 233 q 411 63 489 107 q 242 0 333 18 l 128 114 q 288 154 214 119 q 415 241 361 189 q 499 357 468 293 q 529 486 529 421 q 497 614 529 551 q 410 726 465 676 q 281 807 354 775 q 128 844 208 839 l 128 114 l 0 249 l 0 682 l 128 844 l 0 844 l 0 972 l 128 972 l 128 972 z "},"E":{"ha":740,"x_min":0,"x_max":667,"o":"m 128 461 l 0 590 l 128 590 l 128 972 l 128 972 l 128 972 l 667 972 l 556 844 l 257 844 l 257 592 l 571 590 l 571 590 l 571 590 l 571 461 l 571 461 l 257 461 l 257 125 l 128 286 l 128 461 l 128 461 m 257 125 l 667 128 l 556 0 l 365 0 l 257 125 z "},"F":{"ha":738,"x_min":0,"x_max":669,"o":"m 574 589 l 574 589 l 574 463 l 268 463 l 268 164 l 143 0 l 143 463 l 143 463 l 0 589 l 143 589 l 143 972 l 669 972 l 669 972 l 558 844 l 268 844 l 268 589 l 574 589 z "},"G":{"ha":924,"x_min":0,"x_max":854,"o":"m 854 333 q 790 201 831 263 q 696 95 749 140 q 578 25 643 50 q 442 0 514 0 q 267 39 347 0 q 126 145 186 78 q 33 303 67 213 q 0 496 0 393 q 33 676 0 590 q 126 828 67 763 q 267 933 186 894 q 442 972 347 972 q 591 938 514 972 q 726 844 668 904 l 642 754 q 549 813 593 790 q 444 836 504 836 q 315 809 374 836 q 216 735 257 782 q 152 626 175 689 q 129 493 129 564 q 151 349 129 414 q 215 236 174 283 q 313 163 256 189 q 442 138 371 138 q 608 188 538 138 q 713 332 679 238 l 521 333 l 426 460 l 713 460 l 854 333 z "},"H":{"ha":753,"x_min":-1,"x_max":683,"o":"m 683 972 l 683 0 l 557 0 l 557 461 l 272 463 l 272 -1 l 144 126 l 144 464 l 143 463 l -1 590 l 144 590 l 144 972 l 272 972 l 272 590 l 557 590 l 557 844 l 683 972 z "},"I":{"ha":199,"x_min":0,"x_max":129,"o":"m 129 0 l 0 0 l 0 972 l 129 844 l 129 0 l 129 0 z "},"J":{"ha":653,"x_min":0,"x_max":583,"o":"m 583 324 q 564 191 583 250 q 506 89 544 132 q 410 23 468 46 q 276 0 353 0 q 192 12 233 0 q 114 47 150 24 q 48 103 78 69 q 0 178 18 136 l 97 276 q 168 170 122 201 q 276 139 214 139 q 345 152 313 139 q 402 189 378 165 q 440 247 426 213 q 454 324 454 282 l 454 842 l 308 972 l 454 972 l 583 972 l 583 324 z "},"K":{"ha":744,"x_min":0,"x_max":669,"o":"m 669 -1 q 635 -1 651 -1 q 600 0 619 0 q 556 0 581 0 q 496 0 531 0 l 0 539 l 131 653 l 0 653 l 0 929 l 131 1046 l 131 653 l 490 972 l 651 972 l 179 536 q 367 330 290 414 q 496 190 444 246 q 578 101 547 133 q 626 49 608 68 q 652 20 643 31 q 669 -1 661 10 z "},"L":{"ha":644,"x_min":0,"x_max":575,"o":"m 575 133 l 575 0 l 261 0 l 0 263 l 0 972 l 128 844 l 128 135 l 575 133 z "},"M":{"ha":888,"x_min":0,"x_max":818,"o":"m 707 972 l 818 972 l 818 0 l 818 0 l 692 110 l 692 571 l 457 0 l 356 0 l 126 571 l 126 -125 l 0 -125 l 0 831 l 110 972 l 408 219 l 707 972 l 707 972 z "},"N":{"ha":757,"x_min":0,"x_max":688,"o":"m 560 1046 l 688 933 l 688 0 l 560 0 l 560 -1 l 125 775 l 126 0 l 0 97 l 0 972 l 0 972 l 160 972 l 560 238 l 560 1046 l 560 1046 z "},"O":{"ha":982,"x_min":0,"x_max":913,"o":"m 465 972 q 635 933 554 972 q 778 827 717 894 q 876 669 840 760 q 913 478 913 579 q 876 296 913 382 q 778 144 840 210 q 635 39 717 78 q 465 0 554 0 q 315 26 386 0 q 188 96 244 51 q 90 201 131 140 q 32 333 50 263 l 160 333 q 276 183 196 238 q 465 128 356 128 q 590 156 532 128 q 690 231 647 183 q 758 342 733 279 q 783 478 783 406 q 758 623 783 556 q 690 740 733 690 q 590 817 647 789 q 465 844 532 844 q 299 798 374 844 q 181 678 225 751 q 129 514 138 606 q 160 333 121 422 l 0 478 q 36 669 0 579 q 135 827 72 760 q 283 933 199 894 q 465 972 368 972 z "},"P":{"ha":633,"x_min":0,"x_max":564,"o":"m 125 972 q 300 950 219 972 q 439 888 381 928 q 531 794 497 849 q 564 675 564 739 q 539 582 564 628 q 468 500 514 536 q 358 439 422 464 q 218 408 294 414 l 129 519 l 129 144 l 0 1 l 0 972 l 125 972 m 129 519 q 257 533 200 519 q 354 567 314 546 q 416 617 394 589 q 438 674 438 644 q 416 740 438 708 q 354 794 394 771 q 257 831 314 818 q 129 844 200 844 l 129 519 z "},"Q":{"ha":976,"x_min":3,"x_max":907,"o":"m 753 0 l 682 81 q 564 21 621 43 q 444 -1 507 -1 q 272 37 353 -1 q 132 140 192 75 q 38 293 72 206 q 3 479 3 381 q 38 674 3 583 q 132 831 72 764 q 273 935 192 897 q 446 972 354 972 q 619 935 538 972 q 760 831 700 897 q 854 674 819 764 q 889 479 889 583 q 881 391 889 436 q 857 302 872 346 q 821 219 842 258 q 775 150 800 181 q 809 109 799 121 q 824 93 819 97 q 828 88 828 89 q 836 78 829 86 q 858 53 843 71 q 907 0 874 36 l 753 0 m 446 847 q 320 820 378 847 q 220 744 263 793 q 153 627 178 694 q 129 481 129 560 q 153 342 129 407 q 219 228 176 276 q 319 153 261 181 q 444 125 376 125 q 526 135 482 125 q 608 169 571 144 l 444 371 l 444 544 l 690 249 q 745 358 728 299 q 763 481 763 418 q 738 627 763 560 q 672 744 714 694 q 572 820 629 793 q 446 847 514 847 z "},"R":{"ha":713,"x_min":0,"x_max":643,"o":"m 0 844 l 129 844 l 0 972 q 131 972 63 974 q 265 959 200 969 q 389 929 331 949 q 492 877 447 910 q 562 795 536 844 q 588 678 588 746 q 564 587 588 631 q 498 507 540 543 q 397 444 456 471 q 268 406 339 418 l 643 0 l 460 0 l 0 515 l 0 844 m 129 515 l 158 515 q 284 532 229 515 q 376 573 339 549 q 434 626 414 597 q 454 678 454 654 q 438 740 454 711 q 385 792 422 769 q 285 828 347 814 q 129 844 222 842 l 129 515 z "},"S":{"ha":693,"x_min":3,"x_max":624,"o":"m 547 454 q 606 376 588 422 q 624 274 624 329 q 598 159 624 210 q 530 73 572 108 q 433 19 488 38 q 321 0 379 0 q 223 13 272 0 q 131 50 174 25 q 54 112 88 75 q 3 197 21 149 l 108 318 q 124 235 106 269 q 174 178 143 200 q 244 146 206 156 q 321 136 283 136 q 382 144 350 136 q 440 166 414 151 q 484 203 467 181 q 501 257 501 226 q 488 322 501 297 q 447 363 474 346 q 385 392 421 379 q 306 424 349 406 q 203 462 254 440 q 110 516 151 483 q 44 596 69 549 q 18 713 18 643 q 45 833 18 783 q 116 914 72 883 q 213 958 160 944 q 321 972 267 972 q 363 968 343 972 q 398 959 383 964 q 421 949 413 954 q 429 942 429 943 l 301 844 l 476 844 l 472 757 q 426 808 457 788 q 359 837 396 828 q 283 844 322 846 q 211 826 243 842 q 159 783 179 811 q 139 713 139 754 q 161 642 139 671 q 219 591 183 613 q 301 553 256 569 q 391 523 346 538 q 478 492 436 508 q 547 454 519 475 z "},"T":{"ha":738,"x_min":0,"x_max":668,"o":"m 288 700 l 414 844 l 414 0 l 288 -125 l 288 700 m 0 972 l 668 972 l 668 844 l 414 844 l 414 844 l 143 844 l 0 972 z "},"U":{"ha":726,"x_min":0,"x_max":657,"o":"m 657 1047 l 657 422 q 622 198 657 282 q 535 70 586 114 q 424 13 483 26 q 318 0 365 0 q 83 103 165 0 q 0 407 0 207 l 0 972 l 126 844 l 126 407 q 175 196 126 264 q 319 128 224 128 q 470 197 413 128 q 528 407 528 265 l 528 1047 l 657 1047 z "},"V":{"ha":888,"x_min":0,"x_max":818,"o":"m 471 0 l 424 -125 l 376 0 l 0 972 l 140 972 l 383 346 l 292 219 l 424 219 l 424 219 l 722 972 l 722 972 l 818 844 l 471 0 z "},"W":{"ha":1201,"x_min":3,"x_max":1132,"o":"m 1004 972 l 1132 972 l 860 0 l 754 0 l 589 649 l 683 740 l 558 740 l 558 740 l 343 0 l 250 0 l 3 864 l 111 972 l 296 293 l 481 972 l 619 972 l 619 972 l 808 286 l 1004 972 z "},"X":{"ha":725,"x_min":0,"x_max":656,"o":"m 396 486 l 654 0 l 581 -125 l 335 365 l 183 90 l 49 90 l 136 0 l 76 0 l 76 0 l 0 0 l 258 486 l 0 972 l 136 972 l 335 608 l 521 972 l 656 972 l 396 486 l 396 486 z "},"Y":{"ha":731,"x_min":-1,"x_max":643,"o":"m 643 919 l 399 481 l 399 0 l 261 -124 l 261 479 l -1 972 l 61 972 l 61 972 l 138 972 l 336 601 l 574 1047 l 643 919 z "},"Z":{"ha":678,"x_min":0,"x_max":608,"o":"m 140 831 l 140 831 l 0 972 l 250 972 l 406 831 l 140 831 m 608 972 l 206 131 l 608 131 l 608 0 l 328 0 l 108 233 l 406 831 l 406 831 l 406 972 l 608 972 z "},"&":{"ha":992,"x_min":0,"x_max":922,"o":"m 588 144 q 476 33 543 64 q 319 1 410 1 q 193 24 251 1 q 92 89 135 47 q 24 190 49 131 q 0 319 0 249 q 14 396 0 358 q 50 465 28 433 q 101 525 72 497 q 160 574 129 553 q 103 652 126 607 q 79 747 79 697 q 100 833 79 792 q 155 904 121 874 q 232 953 189 935 q 319 971 275 971 q 391 963 361 971 q 446 938 421 954 q 493 897 471 921 q 542 843 515 874 l 431 747 q 404 819 428 796 q 348 846 381 843 q 282 835 315 849 q 228 794 249 821 q 207 731 208 767 q 239 653 206 694 l 542 367 q 569 431 553 403 q 619 494 585 458 l 700 399 q 693 393 700 399 q 676 374 686 388 q 656 335 667 360 q 636 271 644 310 q 685 226 660 249 q 744 172 711 203 q 821 100 778 142 q 922 0 864 58 l 867 -125 l 588 144 m 446 176 q 469 201 457 188 q 493 239 481 215 l 239 478 q 149 404 174 450 q 131 309 125 358 q 168 215 138 260 q 243 146 199 171 q 341 125 288 121 q 446 176 394 129 z "},"!":{"ha":194,"x_min":0,"x_max":125,"o":"m 0 108 l 125 -1 l 125 -1 l 0 -1 l 0 15 l 0 847 l 125 972 l 125 972 l 125 108 l 0 108 l 0 108 z "},"\"":{"ha":279,"x_min":1,"x_max":210,"o":"m 99 813 l 1 899 l 1 972 l 99 972 l 99 813 m 210 813 l 111 899 l 111 972 l 210 972 l 210 813 z "},"'":{"ha":169,"x_min":1,"x_max":100,"o":"m 1 899 l 1 972 l 100 972 l 100 813 l 1 899 z "},"?":{"ha":667,"x_min":1,"x_max":601,"o":"m 310 971 q 423 948 369 971 q 516 884 476 925 q 578 786 556 843 q 601 663 601 729 q 579 547 601 601 q 520 444 557 493 q 437 353 483 396 q 343 275 390 311 q 296 223 318 250 q 261 160 274 196 l 124 160 l 293 -1 l 131 -1 q 118 48 119 24 q 117 96 117 72 q 144 199 117 149 q 213 296 172 249 q 302 390 254 343 q 391 481 350 436 q 460 572 432 526 q 488 663 488 617 q 441 794 488 747 q 310 842 394 842 q 176 794 224 842 q 117 663 128 747 l 1 663 q 33 786 7 729 q 101 884 60 843 q 195 948 142 925 q 310 971 249 971 z "},"a":{"ha":679,"x_min":0,"x_max":610,"o":"m 490 65 q 403 15 444 29 q 304 0 361 0 q 186 24 242 0 q 90 90 131 49 q 24 186 49 131 q 0 304 0 242 q 24 422 0 367 q 90 519 49 478 q 186 585 131 561 q 304 610 242 610 q 419 586 365 610 q 515 521 474 563 q 582 424 557 479 q 610 304 607 368 l 610 182 l 490 279 l 490 65 m 307 142 q 411 167 369 142 q 474 228 453 192 q 494 309 494 265 q 472 390 493 353 q 410 451 451 426 q 307 476 368 476 q 179 430 228 476 q 131 303 131 383 q 179 183 131 224 q 307 142 228 142 z "},"b":{"ha":683,"x_min":0,"x_max":614,"o":"m 306 611 q 426 588 369 611 q 524 522 482 564 q 590 425 565 481 q 614 306 614 369 q 590 188 614 243 q 524 90 565 132 q 426 24 482 49 q 306 0 369 0 q 196 24 249 0 q 101 88 143 47 q 33 181 60 128 q 0 292 6 233 l 0 919 l 131 825 l 131 553 q 206 599 164 588 q 306 611 249 611 m 304 140 q 433 185 383 139 q 483 303 483 231 q 469 378 483 343 q 432 438 456 413 q 376 477 408 463 q 306 492 343 492 q 260 483 283 492 q 214 463 238 474 l 131 551 l 131 314 q 176 188 131 235 q 304 140 222 142 z "},"c":{"ha":667,"x_min":1,"x_max":597,"o":"m 597 228 q 558 135 586 176 q 492 63 531 93 q 406 17 454 33 q 307 0 358 0 q 189 24 244 0 q 92 90 133 49 q 26 188 50 132 q 1 306 1 243 q 26 424 1 368 q 92 521 50 479 q 189 587 133 563 q 307 611 244 611 q 353 609 331 611 q 399 596 375 607 l 308 493 l 533 493 l 475 413 q 397 476 440 458 q 308 493 354 493 q 235 478 268 493 q 179 438 203 464 q 142 376 156 411 q 129 301 129 342 q 178 169 129 221 q 307 118 226 118 q 408 151 364 118 q 475 228 451 183 l 597 228 z "},"d":{"ha":701,"x_min":0,"x_max":632,"o":"m 632 818 l 632 290 q 613 197 631 247 q 556 102 594 146 q 456 29 517 58 q 306 0 394 0 q 188 24 243 0 q 90 90 132 49 q 24 188 49 132 q 0 306 0 243 q 24 424 0 368 q 90 521 49 479 q 188 587 132 563 q 306 611 243 611 q 411 590 364 611 q 504 536 458 569 l 418 440 q 373 467 403 457 q 308 478 343 478 q 233 462 267 478 q 177 421 200 446 q 142 365 154 396 q 129 306 129 335 q 142 240 129 272 q 179 181 156 207 q 235 140 203 156 q 306 124 268 124 q 382 137 346 124 q 445 174 418 150 q 488 232 472 199 q 504 306 504 265 l 504 382 l 504 536 l 504 919 l 632 818 z "},"e":{"ha":679,"x_min":-1,"x_max":610,"o":"m 610 239 q 492 60 575 119 q 304 0 408 0 q 186 24 242 0 q 89 90 131 49 q 23 188 47 132 q -1 306 -1 243 q 23 425 -1 369 q 89 522 47 481 q 186 588 131 564 q 304 611 242 611 q 440 581 375 611 q 550 506 504 551 l 367 306 l 129 306 q 176 174 129 225 q 303 121 222 122 q 369 131 336 121 q 431 165 403 142 q 479 222 460 188 q 504 306 499 257 l 610 239 m 303 501 q 216 481 257 501 q 151 414 175 460 l 465 414 q 401 481 442 460 q 303 501 361 501 z "},"f":{"ha":472,"x_min":0,"x_max":403,"o":"m 403 785 q 297 726 336 774 q 247 611 258 679 l 138 707 q 175 782 149 746 q 237 847 201 818 q 315 895 272 876 q 403 919 358 914 l 403 785 m 0 611 l 119 611 l 403 611 l 403 499 l 247 499 l 247 147 l 119 -3 l 119 499 l 0 611 z "},"g":{"ha":689,"x_min":0,"x_max":619,"o":"m 619 -29 q 608 -115 619 -72 q 573 -197 596 -158 q 517 -267 550 -235 q 440 -319 483 -299 l 349 -226 q 402 -198 376 -215 q 447 -158 428 -181 q 478 -107 467 -135 q 490 -46 490 -79 l 490 -29 l 490 75 q 407 20 458 40 q 299 0 356 0 q 182 24 236 0 q 88 89 128 47 q 24 188 47 131 q 0 311 0 244 q 23 427 0 372 q 86 523 46 482 q 180 588 126 564 q 296 611 233 611 q 438 587 381 611 q 530 526 494 563 q 584 448 565 490 q 610 369 603 406 q 619 308 618 332 q 619 282 619 283 l 619 -29 m 490 282 q 466 397 492 351 q 401 466 440 443 q 315 490 361 489 q 227 469 268 490 q 158 408 186 449 q 126 306 129 367 q 171 181 124 222 q 289 135 218 140 q 358 142 322 132 q 415 174 393 153 l 490 76 l 490 282 z "},"h":{"ha":661,"x_min":0,"x_max":592,"o":"m 514 544 q 570 461 549 510 q 592 343 592 413 l 592 0 l 467 0 l 467 343 q 441 428 465 393 q 380 481 417 463 q 301 499 343 499 q 219 482 258 500 l 124 560 l 124 0 l 0 108 l 0 917 l 125 804 l 124 560 q 207 597 154 585 q 317 609 260 610 q 428 592 375 608 q 514 544 482 576 z "},"i":{"ha":197,"x_min":0,"x_max":128,"o":"m 0 0 l 0 611 l 128 611 l 128 0 l 0 0 m 0 811 l 128 811 l 128 611 l 0 735 l 0 811 z "},"ÿ":{"ha":694,"x_min":0,"x_max":0,"o":""},"j":{"ha":386,"x_min":1,"x_max":317,"o":"m 185 833 l 317 833 l 317 611 l 186 731 l 186 831 l 185 833 m 186 611 l 317 611 l 317 -83 l 317 -111 q 306 -177 317 -143 q 278 -241 294 -211 q 240 -292 261 -271 q 199 -319 219 -314 l 1 -319 q 72 -296 39 -312 q 131 -251 106 -279 q 171 -182 156 -222 q 186 -89 186 -142 l 186 611 z "},"k":{"ha":542,"x_min":0,"x_max":472,"o":"m 319 0 l 0 329 l 0 918 l 126 808 l 126 411 l 319 611 l 472 611 l 189 308 q 339 154 286 211 q 419 66 392 97 q 455 22 446 35 q 472 0 464 8 l 319 0 z "},"l":{"ha":199,"x_min":0,"x_max":129,"o":"m 0 0 l 0 919 l 129 919 l 129 115 l 0 0 z "},"m":{"ha":1090,"x_min":0,"x_max":1021,"o":"m 944 547 q 1000 465 979 513 q 1021 349 1021 418 l 1021 136 l 900 -1 l 900 349 q 860 460 900 419 q 747 501 821 501 q 661 485 696 501 q 606 447 626 468 q 578 403 586 425 q 574 369 571 381 l 576 0 l 442 -1 l 442 274 l 442 333 q 411 463 442 425 q 304 501 381 501 q 238 496 269 501 q 183 474 207 490 q 144 432 158 458 q 128 364 129 406 l 128 -1 l 0 -1 l 0 471 l 0 608 l 164 464 l 153 578 q 224 606 188 601 q 306 611 261 611 q 372 607 339 611 q 433 592 404 603 q 485 563 463 581 q 518 517 507 544 q 619 594 561 576 q 749 611 676 611 q 865 597 818 611 q 944 547 911 582 z "},"n":{"ha":633,"x_min":0,"x_max":564,"o":"m 168 458 q 135 411 144 435 q 126 365 126 388 l 126 0 l 0 107 l 0 610 l 168 458 m 504 550 q 538 508 526 531 q 556 460 550 485 q 563 408 561 435 q 564 351 564 381 l 564 0 l 442 0 l 442 351 q 435 414 442 385 q 413 458 428 443 q 362 485 396 476 q 290 493 328 493 q 219 484 253 493 q 168 458 185 475 l 153 581 q 224 601 188 592 q 306 611 260 611 q 417 592 364 611 q 504 550 469 574 z "},"o":{"ha":681,"x_min":0,"x_max":611,"o":"m 306 611 q 424 588 368 611 q 521 522 479 564 q 587 425 563 481 q 611 307 611 369 q 587 189 611 244 q 521 92 563 133 q 424 26 479 50 q 306 1 368 1 q 209 17 254 1 q 126 63 164 33 q 60 131 89 92 q 15 215 32 169 l 142 215 q 212 145 165 169 q 317 121 258 121 q 443 174 397 121 q 489 308 489 228 q 438 438 489 389 q 307 488 388 488 q 213 463 251 488 q 152 400 174 439 q 128 313 131 361 q 142 215 125 264 l 0 338 q 33 444 6 394 q 101 531 60 494 q 196 590 143 568 q 306 611 249 611 z "},"p":{"ha":693,"x_min":0,"x_max":624,"o":"m 318 611 q 436 587 381 611 q 533 521 492 563 q 599 424 575 479 q 624 306 624 368 q 599 188 624 243 q 533 90 575 132 q 436 24 492 49 q 318 0 381 0 q 218 19 261 0 q 129 61 175 38 l 129 -187 l 0 -319 l 0 318 q 28 440 3 386 q 97 533 54 494 q 197 591 140 571 q 318 611 253 611 m 318 121 q 386 136 354 121 q 442 177 418 151 q 481 236 467 203 q 494 306 494 269 q 481 380 494 346 q 444 439 468 414 q 388 478 421 464 q 314 492 354 492 q 242 476 274 492 q 188 435 211 461 q 151 374 165 408 q 129 301 136 339 l 129 63 l 207 163 q 257 130 231 139 q 318 121 283 121 z "},"q":{"ha":701,"x_min":0,"x_max":632,"o":"m 310 611 q 432 590 374 611 q 535 529 490 568 q 606 436 579 490 q 632 318 632 382 l 632 -318 l 513 -187 l 513 54 l 513 301 q 499 380 513 344 q 458 440 485 415 q 394 478 432 465 q 310 489 357 492 q 177 434 228 485 q 126 301 126 383 q 177 169 126 221 q 310 117 228 117 q 376 127 344 117 q 429 161 407 138 l 513 69 q 422 13 475 33 q 310 -8 368 -8 q 190 16 246 -8 q 91 82 133 40 q 24 180 49 124 q 0 301 0 236 q 24 422 0 365 q 91 520 49 478 q 190 587 133 563 q 310 611 246 611 z "},"r":{"ha":403,"x_min":0,"x_max":336,"o":"m 333 490 l 336 489 q 313 501 325 500 q 290 503 301 503 q 235 492 261 503 q 186 461 208 481 q 149 417 164 442 q 128 363 133 392 l 128 1 l 0 107 l 0 550 l 0 611 q 33 578 22 588 q 48 563 43 568 q 56 555 53 558 q 72 540 60 551 q 106 508 83 529 q 171 447 128 488 l 153 581 q 225 601 186 592 q 333 611 264 611 l 333 490 z "},"s":{"ha":451,"x_min":0,"x_max":382,"o":"m 229 367 q 347 292 313 340 q 382 185 382 243 q 319 47 382 93 q 151 1 257 1 q 83 5 117 1 q 15 32 50 8 l 15 139 q 83 111 50 128 q 151 94 117 94 q 230 115 199 94 q 261 169 261 135 q 235 222 261 204 q 151 263 210 239 q 36 333 72 296 q 0 429 0 371 q 16 503 0 469 q 60 560 32 536 q 128 598 89 585 q 213 611 167 611 q 267 610 236 611 q 319 597 299 608 l 246 506 q 208 506 229 506 q 167 501 186 506 q 135 483 149 496 q 122 444 122 471 q 147 403 122 421 q 229 367 171 385 z "},"t":{"ha":428,"x_min":0,"x_max":358,"o":"m 358 611 l 358 499 l 254 499 l 254 146 l 125 0 l 125 483 l 125 483 l 125 499 l 125 499 l 0 611 l 125 611 l 125 919 l 254 919 l 254 611 l 358 611 z "},"u":{"ha":633,"x_min":0,"x_max":564,"o":"m 442 47 q 404 24 426 32 q 357 10 382 15 q 306 3 332 4 q 260 1 281 1 q 143 15 190 1 q 60 61 96 28 q 13 144 26 96 q 0 263 0 192 l 0 611 l 129 499 l 129 261 q 135 197 129 225 q 155 148 140 168 q 194 117 169 128 q 260 107 219 107 q 320 115 289 107 q 378 141 351 124 q 422 185 404 158 q 442 247 439 211 l 442 611 l 564 611 l 564 138 l 442 247 l 442 47 z "},"v":{"ha":546,"x_min":-1,"x_max":474,"o":"m 474 478 l 265 0 l -1 613 l 94 711 l 265 288 l 415 611 l 474 478 z "},"w":{"ha":789,"x_min":0,"x_max":719,"o":"m 719 460 l 553 -1 l 385 426 l 217 -1 l 0 593 l 86 728 l 222 350 l 329 611 l 436 611 l 553 350 l 647 611 l 719 460 z "},"x":{"ha":575,"x_min":0,"x_max":506,"o":"m 318 299 l 506 0 l 431 -119 l 363 0 l 251 189 l 142 0 l 142 0 l 47 79 l 189 300 l 0 611 l 142 611 l 251 425 l 376 611 l 506 611 l 318 299 z "},"y":{"ha":686,"x_min":0,"x_max":617,"o":"m 617 611 l 375 204 l 283 296 l 475 611 l 617 611 m 283 296 l 283 296 l 283 43 l 63 -321 l 63 -321 l 64 -69 l 219 189 l 0 488 l 61 611 l 283 296 z "},"z":{"ha":572,"x_min":0,"x_max":503,"o":"m 503 611 l 222 124 l 488 124 l 486 0 l 0 0 l 303 504 l 144 504 l 18 611 l 185 611 l 303 504 l 303 611 l 503 611 z "}," ":{"ha":408,"x_min":0,"x_max":0,"o":""},"A":{"ha":886,"x_min":0,"x_max":815,"o":"m 722 0 l 722 0 l 606 297 l 258 297 l 88 -125 l 0 0 l 125 297 l 125 297 l 125 297 l 15 424 l 172 424 l 376 972 l 471 972 l 815 110 l 722 0 m 297 424 l 565 424 l 424 785 l 297 424 z "},",":{"ha":168,"x_min":0,"x_max":99,"o":"m 0 1 l 0 75 l 99 75 l 99 -85 l 0 1 z "},";":{"ha":169,"x_min":0,"x_max":100,"o":"m 100 104 l 100 267 l 0 267 l 0 192 l 100 104 m 100 449 l 0 449 l 0 549 l 100 549 l 100 449 l 100 449 z "},":":{"ha":169,"x_min":0,"x_max":100,"o":"m 100 449 l 0 449 l 0 549 l 100 549 l 100 449 m 100 168 l 0 168 l 0 268 l 100 268 l 100 168 z "},".":{"ha":168,"x_min":0,"x_max":100,"o":"m 100 0 l 0 0 l 0 100 l 100 100 l 100 0 z "},"Š":{"ha":694,"x_min":0,"x_max":0,"o":""}}}
